M48
; DRILL file {KiCad 9.0.1} date 2025-06-26T13:52:27-0400
; FORMAT={-:-/ absolute / metric / decimal}
; #@! TF.CreationDate,2025-06-26T13:52:27-04:00
; #@! TF.GenerationSoftware,Kicad,Pcbnew,9.0.1
; #@! TF.FileFunction,Plated,1,2,PTH
FMAT,2
METRIC
; #@! TA.AperFunction,Plated,PTH,ComponentDrill
T1C0.889
; #@! TA.AperFunction,Plated,PTH,ComponentDrill
T2C1.000
; #@! TA.AperFunction,Plated,PTH,ComponentDrill
T3C1.500
%
G90
G05
T1
X190.024Y-73.819
X190.024Y-76.359
X190.024Y-78.899
X190.024Y-81.439
X190.024Y-83.979
X190.024Y-86.519
X190.024Y-89.059
X205.264Y-73.819
X205.264Y-76.359
X205.264Y-78.899
X205.264Y-81.439
X205.264Y-83.979
X205.264Y-86.519
X205.264Y-89.059
T2
X167.421Y-79.649
X167.421Y-82.189
X167.421Y-84.729
X167.421Y-87.269
X171.45Y-80.725
X171.45Y-83.225
X171.45Y-85.725
X185.95Y-80.725
X185.95Y-85.725
T3
X136.684Y-106.997
X143.034Y-104.457
X155.734Y-106.997
X162.084Y-104.457
X174.784Y-106.997
X181.134Y-104.457
X193.834Y-100.171
X193.834Y-118.904
X200.184Y-97.631
X200.184Y-116.364
T3
G00X178.3Y-77.625
M15
G01X179.6Y-77.625
M16
G05
G00X178.3Y-88.825
M15
G01X179.6Y-88.825
M16
G05
M30
